#!OML:ASF H:\MichaelJackson\Top Level 1\Subject 1\Session 1\male.ASF
:FULLY-SPECIFIED
:DEGREES
32
root 4.83258 16.8643 -33.1649 9.23499 2.48916 -3.22057
lowerback -2.81942 1.44982 1.79597
upperback 0.0849583 1.81685 3.57819
thorax 1.60784 0.909947 2.74582
lowerneck -4.07274 -1.76652 -3.16357
upperneck -8.37302 -2.37779 -1.5145
head -1.90549 -1.06298 0.0651659
rclavicle 1.65985e-014 2.14687e-014
rhumerus -34.6689 9.52607 -86.3263
rradius 35.2803
rwrist 16.1129
rhand -23.7441 -20.3925
rfingers 7.12502
rthumb 2.72449 -50.3548
lclavicle 1.65985e-014 2.14687e-014
lhumerus -38.2341 -10.9116 101.241
lradius 41.2764
lwrist 9.89257
lhand -5.66665 10.707
lfingers 7.12502
lthumb 20.1528 39.6817
rfemur -19.5035 -1.01802 24.4204
rtibia 32.8211
rfoot -18.0134 -16.4705
rtoes 29.8313
lfemur -28.9474 3.51945 -19.4614
ltibia 43.9548
lfoot -19.7533 -5.60728
ltoes 18.8464
33
root 4.82829 16.8634 -33.1314 9.17296 2.2647 -3.28782
lowerback -2.91971 1.42688 1.69765
upperback 0.0532677 1.78602 3.62397
thorax 1.62812 0.893656 2.84949
lowerneck -4.10479 -1.72785 -3.11242
upperneck -8.31297 -2.32117 -1.45441
head -1.88059 -1.03876 0.0745107
rclavicle -3.22031e-014 -2.94201e-014
rhumerus -34.8179 9.4781 -86.2034
rradius 35.3727
rwrist 16.0578
rhand -23.6458 -20.434
rfingers 7.12502
rthumb 2.81947 -50.3951
lclavicle -3.22031e-014 -2.94201e-014
lhumerus -38.219 -10.2198 101.013
lradius 40.2463
lwrist 10.0349
lhand -4.81308 10.5256
lfingers 7.12502
lthumb 20.973 39.4116
rfemur -19.2778 -0.957172 24.495
rtibia 32.754
rfoot -17.8268 -16.5266
rtoes 28.5809
lfemur -28.5288 3.60562 -19.6462
ltibia 43.3955
lfoot -19.9104 -4.72581
ltoes 19.205
34
root 4.82374 16.8629 -33.0977 9.10002 2.06192 -3.37154
lowerback -3.01647 1.39517 1.60433
upperback 0.0241101 1.74349 3.67132
thorax 1.64974 0.871541 2.95141
lowerneck -4.1207 -1.68877 -3.05565
upperneck -8.26463 -2.26455 -1.38274
head -1.86222 -1.01457 0.0867834
rclavicle 3.74709e-014 3.65764e-014
rhumerus -34.9784 9.42018 -86.0954
rradius 35.4627
rwrist 16.0254
rhand -23.595 -20.4534
rfingers 7.12502
rthumb 2.8685 -50.4139
lclavicle 3.74709e-014 3.65764e-014
lhumerus -38.2489 -9.60597 100.81
lradius 39.3046
lwrist 10.0882
lhand -4.0792 10.3384
lfingers 7.12502
lthumb 21.6779 39.1448
rfemur -19.0338 -0.916399 24.5896
rtibia 32.6745
rfoot -17.6058 -16.5999
rtoes 27.1422
lfemur -28.0914 3.72189 -19.7815
ltibia 42.9121
lfoot -20.1846 -3.74266
ltoes 18.7601
35
root 4.81874 16.8624 -33.0641 9.01182 1.87068 -3.47903
lowerback -3.10123 1.35879 1.52046
upperback -6.04658e-005 1.69473 3.72233
thorax 1.67039 0.846357 3.05128
lowerneck -4.12233 -1.6496 -2.99477
upperneck -8.23173 -2.20824 -1.29932
head -1.85121 -0.990486 0.102279
rclavicle -2.51463e-014 -1.98785e-014
rhumerus -35.1474 9.34062 -85.9983
rradius 35.5493
rwrist 16.0332
rhand -23.5776 -20.4718
rfingers 7.12502
rthumb 2.88532 -50.432
lclavicle -2.51463e-014 -1.98785e-014
lhumerus -38.3211 -9.08515 100.639
lradius 38.4575
lwrist 10.0488
lhand -3.50269 10.1828
lfingers 7.12502
lthumb 22.2314 38.9242
rfemur -18.7739 -0.86968 24.7124
rtibia 32.5956
rfoot -17.3773 -16.6876
rtoes 25.6087
lfemur -27.6332 3.85073 -19.8465
ltibia 42.4832
lfoot -20.5322 -2.73565
ltoes 17.6961
36
root 4.81338 16.8608 -33.0312 8.92233 1.71007 -3.5944
lowerback -3.17979 1.31218 1.43443
upperback -0.0256868 1.63282 3.77237
thorax 1.68683 0.814601 3.15054
lowerneck -4.10518 -1.61304 -2.9289
upperneck -8.21963 -2.15614 -1.20481
head -1.85008 -0.968386 0.120729
rclavicle 8.34896e-015 2.94201e-014
rhumerus -35.2983 9.23795 -85.9084
rradius 35.5978
rwrist 16.0933
rhand -23.5867 -20.4803
rfingers 7.12502
rthumb 2.87649 -50.4407
lclavicle 8.34896e-015 2.94201e-014
lhumerus -38.4307 -8.66266 100.504
lradius 37.699
lwrist 9.92239
lhand -3.08745 10.05
lfingers 7.12502
lthumb 22.63 38.7433
rfemur -18.5253 -0.834523 24.8483
rtibia 32.5369
rfoot -17.1447 -16.792
rtoes 23.9827
lfemur -27.1615 3.93059 -19.8395
ltibia 42.0816
lfoot -20.907 -1.85189
ltoes 16.574
